<?xml version="1.0" encoding="UTF-8"?>
<!-- Generated by Pixelmator Pro 3.7 -->
<svg width="657" height="661" viewBox="0 0 657 661" xmlns="http://www.w3.org/2000/svg">
    <g id="Group-copy-3">
        <path id="e-copy-4" fill="#ff6500" fill-rule="evenodd" stroke="none" d="M 466.56665 436.246582 C 480.78894 445.022522 492.918335 449.744141 506.96167 450.953369 C 521.005005 452.162598 534.339478 450.61731 546.965576 446.317505 C 547.72229 446.033936 548.384155 445.78595 548.951782 445.573181 C 549.519165 445.360596 550.181274 445.112488 550.937744 444.829041 C 552.45105 444.261963 553.964478 443.694885 555.477661 443.127808 C 556.990845 442.560791 558.433228 441.804626 559.804688 440.859253 C 564.202759 438.779785 568.364258 436.357544 572.289551 433.592346 C 576.214844 430.827148 580.036255 427.846741 583.356445 424.268127 C 623.272095 381.246582 591.874634 338.335327 589.370117 325.087646 C 588.620361 321.122559 590.100464 316.856262 593.117798 315.140076 C 605.715698 307.974731 609.644043 317.960815 611.023926 320.177185 C 623.865845 340.806763 631.782349 395.343933 611.580078 438.50592 L 611.580078 438.50592 C 592.404663 479.473938 561.472778 502.185791 537.657593 513.873047 C 533.471069 515.927673 529.074463 517.736511 524.53479 519.437622 C 487.838379 533.188538 451.074585 533.806091 414.24292 521.290161 C 377.411133 508.774292 350.489868 479.817932 333.478516 434.420288 C 317.317627 391.292603 319.395874 352.224548 339.713257 317.215088 C 360.03064 282.205627 387.969849 258.038452 423.53125 244.712891 C 446.608276 236.06543 470.984131 233.186951 496.659058 236.077698 C 522.333984 238.968384 546.493652 249.32959 569.138672 267.161499 C 570.178833 267.634583 572.754883 271.630737 573.180176 272.765686 C 574.172485 275.413818 574.585571 277.955566 574.419434 280.390686 C 574.253296 282.825806 573.508057 285.154358 572.183594 287.376404 L 482.957031 417.289978 C 482.957031 417.289978 474.127197 427.372742 463.996216 417.987549 C 453.629395 408.383972 460.13855 399.143005 460.13855 399.143005 L 505.004639 332.611328 C 498.90564 330.151001 492.557983 328.754578 485.961792 328.422058 C 479.365845 328.089294 472.899536 328.678772 466.562866 330.19043 C 465.806152 330.473938 464.955078 330.792908 464.009277 331.147339 C 463.063477 331.501709 462.21228 331.820679 461.455566 332.104187 C 460.320801 332.52948 459.280273 332.919312 458.334473 333.273743 C 457.388916 333.628052 456.419434 334.207092 455.42627 335.01062 C 454.29126 335.435974 453.286499 335.920349 452.411499 336.463867 C 451.536621 337.007446 450.602539 337.68103 449.609497 338.48468 C 440.150513 345.48053 434.817139 354.274048 433.609009 364.86554 C 432.400513 375.457092 433.520874 385.930786 436.970093 396.287109 C 437.111816 396.665344 437.253662 397.043701 437.395386 397.421936 C 437.537109 397.800293 437.678955 398.178589 437.820679 398.556885 C 439.096558 401.96167 440.526245 405.20105 442.109375 408.274963 C 443.692627 411.348877 445.597412 414.745483 447.844604 417.632446 C 454.589355 426.297241 463.510742 434.360901 466.56665 436.246582 Z"/>
        <path id="e-copy-5" fill="#ff6500" fill-rule="evenodd" stroke="none" d="M 162.56665 547.246582 C 176.78894 556.022522 188.918335 560.744141 202.96167 561.953369 C 217.005005 563.162598 230.339478 561.61731 242.965576 557.317505 C 243.72229 557.033936 244.384155 556.78595 244.951782 556.573181 C 245.519165 556.360596 246.181274 556.112488 246.937744 555.829041 C 248.45105 555.261963 249.964478 554.694885 251.477661 554.127808 C 252.990845 553.560791 254.433228 552.804626 255.804688 551.859253 C 260.202759 549.779785 264.364258 547.357544 268.289551 544.592346 C 272.214844 541.827148 276.036255 538.846741 279.356445 535.268127 C 319.272095 492.246582 287.874634 449.335327 285.370117 436.087646 C 284.620361 432.122559 286.100464 427.856262 289.117798 426.140076 C 301.715698 418.974731 305.644043 428.960815 307.023926 431.177185 C 319.865845 451.806763 327.782349 506.343933 307.580078 549.50592 L 307.580078 549.50592 C 288.404663 590.473938 257.472778 613.185791 233.657593 624.873047 C 229.471069 626.927673 225.074463 628.736511 220.53479 630.437622 C 183.838379 644.188538 147.074585 644.806091 110.24292 632.290161 C 73.411133 619.774292 46.489868 590.817932 29.478516 545.420288 C 13.317627 502.292603 15.395874 463.224548 35.713257 428.215088 C 56.03064 393.205627 83.969849 369.038452 119.53125 355.712891 C 142.608276 347.06543 166.984131 344.186951 192.659058 347.077698 C 218.333984 349.968384 242.493652 360.32959 265.138672 378.161499 C 266.178833 378.634583 268.754883 382.630737 269.180176 383.765686 C 270.172485 386.413818 270.585571 388.955566 270.419434 391.390686 C 270.253296 393.825806 269.508057 396.154358 268.183594 398.376404 L 178.957031 528.289978 C 178.957031 528.289978 170.127197 538.372742 159.996216 528.987549 C 149.629395 519.383972 156.13855 510.143005 156.13855 510.143005 L 201.004639 443.611328 C 194.90564 441.151001 188.557983 439.754578 181.961792 439.422058 C 175.365845 439.089294 168.899536 439.678772 162.562866 441.19043 C 161.806152 441.473938 160.955078 441.792908 160.009277 442.147339 C 159.063477 442.501709 158.21228 442.820679 157.455566 443.104187 C 156.320801 443.52948 155.280273 443.919312 154.334473 444.273743 C 153.388916 444.628052 152.419434 445.207092 151.42627 446.01062 C 150.29126 446.435974 149.286499 446.920349 148.411499 447.463867 C 147.536621 448.007446 146.602539 448.68103 145.609497 449.48468 C 136.150513 456.48053 130.817139 465.274048 129.609009 475.86554 C 128.400513 486.457092 129.520874 496.930786 132.970093 507.287109 C 133.111816 507.665344 133.253662 508.043701 133.395386 508.421936 C 133.537109 508.800293 133.678955 509.178589 133.820679 509.556885 C 135.096558 512.96167 136.526245 516.20105 138.109375 519.274963 C 139.692627 522.348877 141.597412 525.745483 143.844604 528.632446 C 150.589355 537.297241 159.510742 545.360901 162.56665 547.246582 Z"/>
        <g id="Group-copy">
            <path id="Path" fill="#ff6500" fill-rule="evenodd" stroke="none" d="M 55.976685 279.200317 C 60.043091 290.356384 72.383423 296.103699 83.539551 292.037231 L 156.822998 265.325073 C 167.979004 261.258606 173.726318 248.918274 169.659912 237.762146 C 165.593384 226.606079 153.253052 220.858765 142.097046 224.925232 L 68.813599 251.63739 C 57.657471 255.703857 51.910156 268.044189 55.976685 279.200317 Z"/>
            <path id="Rounded-Rectangle-copy-3" fill="#ff6500" fill-rule="evenodd" stroke="none" d="M 305.910767 42.257324 C 312.643066 32.476196 326.029907 30.004517 335.811035 36.736694 L 400.062622 80.960266 C 390.815308 94.007751 384.171509 103.249512 375.088257 115.577026 L 311.431396 72.157471 C 301.650269 65.425293 299.178589 52.038452 305.910767 42.257324 Z"/>
            <path id="Rounded-Rectangle-copy-2" fill="#ff6500" fill-rule="evenodd" stroke="none" d="M 161.916992 334.780457 C 150.760864 338.846924 138.420532 333.099609 134.354004 321.943481 C 130.287598 310.787354 136.034912 298.447083 147.19104 294.380615 L 324.276459 229.83197 L 419.749634 94.477173 C 426.59375 84.773987 440.008057 82.456299 449.711304 89.300537 C 459.414429 96.144653 461.732056 109.559021 454.887817 119.262207 L 364.907257 246.830109 C 356.7005 258.77356 351.663696 265.61676 351.663696 265.61676 L 161.916992 334.780457 Z"/>
        </g>
    </g>
</svg>
