<?xml version="1.0" encoding="UTF-8"?>
<!-- Generated by Pixelmator Pro 3.7 -->
<svg width="2163" height="843" viewBox="0 0 2163 843" xmlns="http://www.w3.org/2000/svg">
    <path id="e-copy-3" fill="#000000" fill-rule="evenodd" stroke="none" d="M 1951 543 C 1961.238525 556.208374 1970.939941 564.885986 1983.666016 570.946045 C 1996.39209 577.006042 2009.420898 580.238037 2022.75293 580.641968 C 2023.561035 580.641968 2024.267822 580.641968 2024.874023 580.641968 C 2025.47998 580.641968 2026.187012 580.641968 2026.994873 580.641968 C 2028.61084 580.641968 2030.227051 580.641968 2031.843018 580.641968 C 2033.458984 580.641968 2035.074951 580.440002 2036.690918 580.036011 C 2041.539063 579.631958 2046.285889 578.823975 2050.931885 577.612 C 2055.577881 576.400024 2060.202148 574.950012 2064.566895 572.764038 C 2117.040527 546.484131 2102.696777 495.28418 2105 482 C 2105.689209 478.023926 2108.572266 474.548279 2112 474 C 2126.311035 471.710754 2126.485596 482.440369 2127 485 C 2131.786621 508.823975 2120.062988 562.671265 2086 596 L 2086 596 C 2053.668457 627.634521 2016.733887 638.048401 1990.332031 640.635986 C 1985.690674 641.090881 1980.938965 641.242004 1976.091064 641.242004 C 1936.902832 641.242004 1902.26001 628.920166 1872.161987 604.276001 C 1842.063843 579.631836 1827.015015 543.070251 1827.015015 494.589966 C 1827.015015 463.179169 1834.296631 436.513458 1848.860229 414.59259 C 1848.905884 414.523895 1849.000366 414.30423 1848.997314 414.386658 C 1848.977783 414.9039 1849 534 1849 534 L 1859 534 L 1858.984741 401.428223 C 1858.984741 401.428223 1859.297974 401.072784 1859.369141 400.993011 C 1863.786987 396.042206 1868.657227 391.38623 1873.97998 387.025024 C 1905.290039 361.37085 1939.932861 348.544006 1977.908936 348.544006 C 2002.552979 348.544006 2026.388916 354.401917 2049.416992 366.117981 C 2072.445068 377.834045 2091.432861 396.013916 2106.380859 420.657959 C 2107.188965 421.466003 2108.198975 426.112 2108.198975 427.323975 C 2108.198975 430.151978 2107.693848 432.677002 2106.683838 434.898987 C 2105.673828 437.120972 2104.158936 439.039978 2102.138916 440.656006 L 1973 531 C 1973 531 1961.193604 537.343323 1955 525 C 1948.662109 512.369385 1958 506 1958 506 L 2023.358887 459.442017 C 2018.510986 454.997986 2013.056885 451.463013 2006.996826 448.837036 C 2000.937012 446.210999 1994.675049 444.494019 1988.210938 443.686035 C 1987.402832 443.686035 1986.493896 443.686035 1985.483887 443.686035 C 1984.473877 443.686035 1983.564941 443.686035 1982.756836 443.686035 C 1981.544922 443.686035 1980.433838 443.686035 1979.423828 443.686035 C 1978.414063 443.686035 1977.302979 443.888 1976.091064 444.291992 C 1974.878906 444.291992 1973.768066 444.393005 1972.758057 444.594971 C 1971.748047 444.796997 1970.636963 445.099976 1969.425049 445.504028 C 1958.112793 448.736023 1950.032959 455.098938 1945.185059 464.593018 C 1940.336914 474.087036 1937.710938 484.287964 1937.306885 495.196045 C 1937.306885 495.599976 1937.306885 496.004028 1937.306885 496.407959 C 1937.306885 496.812012 1937.306885 497.216003 1937.306885 497.619995 C 1937.306885 501.255981 1937.509033 504.791016 1937.912842 508.224976 C 1938.316895 511.659058 1938.908691 515.508057 1940 519 C 1943.275391 529.480469 1948.800049 540.161865 1951 543 Z"/>
    <path id="i" fill="#000000" fill-rule="evenodd" stroke="none" d="M 1809 598 C 1803.272095 611.30127 1793.570068 620.334961 1781.449951 627.000977 C 1769.329956 633.666992 1756.604004 637 1743.271973 637 C 1733.171997 637 1723.476074 635.081055 1714.18396 631.243042 C 1704.891968 627.404968 1696.206055 621.446045 1688.125977 613.365967 C 1681.257935 606.093994 1675.804077 597.509033 1671.764038 587.610962 C 1667.723999 577.712952 1665.703979 567.108032 1665.703979 555.796021 C 1665.703979 542.059937 1665.703979 526.70813 1665.703979 509.73999 C 1665.703979 492.771912 1665.703979 475.400085 1665.703979 457.624023 C 1665.703979 440.251953 1665.703979 423.082092 1665.703979 406.114014 C 1665.703979 389.145935 1665.703979 373.794067 1665.703979 360.057983 L 1686.984375 360.057983 L 1687 534 L 1697 534 L 1697.020752 360.057983 L 1779.026001 360.057983 C 1779.026001 375.006104 1779.026001 391.670898 1779.026001 410.052979 C 1779.026001 428.435059 1779.026001 447.119873 1779.026001 466.108032 C 1779.026001 485.500122 1779.026001 504.386902 1779.026001 522.769043 C 1779.026001 541.151123 1779.026001 557.815918 1779.026001 572.764038 C 1779.026001 574.783997 1779.733032 576.400024 1781.146973 577.612 C 1782.561035 578.823975 1784.277954 579.429993 1786.297974 579.429993 C 1786.702026 579.429993 1787.36792 579.493042 1788.115967 579.127014 C 1792.746338 576.861511 1787.862183 559.039795 1790 552 C 1793.572021 540.237366 1807.699951 542.688416 1812 552 C 1813.857422 556.022095 1814.4198 585.414185 1809 598 Z M 1785.085938 284.914001 C 1785.085938 302.286072 1778.925049 317.031921 1766.603027 329.151978 C 1754.280884 341.272034 1739.636108 347.33197 1722.667969 347.33197 C 1705.295898 347.33197 1690.550049 341.272034 1678.430054 329.151978 C 1666.309937 317.031921 1660.25 302.286072 1660.25 284.914001 C 1660.25 267.541931 1666.309937 252.796082 1678.430054 240.676025 C 1690.550049 228.555969 1705.295898 222.495972 1722.667969 222.495972 C 1739.636108 222.495972 1754.280884 228.555969 1766.603027 240.676025 C 1778.925049 252.796082 1785.085938 267.541931 1785.085938 284.914001 Z"/>
    <path id="i-copy" fill="#000000" fill-rule="evenodd" stroke="none" d="M 1636 598 C 1630.272095 611.30127 1620.570068 620.334961 1608.449951 627.000977 C 1596.329956 633.666992 1583.604004 637 1570.271973 637 C 1560.171997 637 1550.476074 635.081055 1541.18396 631.243042 C 1531.891968 627.404968 1523.206055 621.446045 1515.125977 613.365967 C 1508.257935 606.093994 1502.804077 597.509033 1498.764038 587.610962 C 1494.723999 577.712952 1492.703979 567.108032 1492.703979 555.796021 C 1492.703979 542.059937 1492.703979 526.70813 1492.703979 509.73999 C 1492.703979 492.771912 1492.703979 475.400085 1492.703979 457.624023 C 1492.703979 440.251953 1492.703979 423.082092 1492.703979 406.114014 C 1492.703979 389.145935 1492.703979 237.794067 1492.703979 224.057983 L 1514 224.057983 L 1514 534 L 1524 534 L 1524.059326 224.057983 L 1606.026001 224.057983 C 1606.026001 239.006104 1606.026001 391.670898 1606.026001 410.052979 C 1606.026001 428.435059 1606.026001 447.119873 1606.026001 466.108032 C 1606.026001 485.500122 1606.026001 504.386902 1606.026001 522.769043 C 1606.026001 541.151123 1606.026001 557.815918 1606.026001 572.764038 C 1606.026001 574.783997 1606.733032 576.400024 1608.146973 577.612 C 1609.561035 578.823975 1611.277954 579.429993 1613.297974 579.429993 C 1613.702026 579.429993 1614.36792 579.493042 1615.115967 579.127014 C 1619.746338 576.861511 1614.862183 559.039795 1617 552 C 1620.572021 540.237366 1634.699951 542.688416 1639 552 C 1640.857422 556.022095 1641.4198 585.414185 1636 598 Z"/>
    <path id="h" fill="#000000" fill-rule="evenodd" stroke="none" d="M 861 555 C 861 577.220093 862.518066 595.084961 848.377991 611.851013 C 834.237915 628.617065 815.250122 637 791.414001 637 C 769.193848 637 750.610107 629.021118 735.661987 613.062988 C 720.713928 597.104919 713.23999 578.016113 713.23999 555.796021 C 713.23999 539.635925 713.23999 523.375122 713.23999 507.013 C 713.23999 490.650879 713.23999 474.390076 713.23999 458.22998 C 713.23999 446.513916 709.503052 438.333008 702.028992 433.687012 C 694.554932 429.041016 691.768066 426.718018 681.667969 426.718018 C 680.052002 426.718018 678.447571 426.962585 676.820007 427.020996 C 657.578979 427.711304 649.238037 438.838013 644.794006 442.473999 C 644.794006 453.38208 644.794006 464.289917 644.794006 475.197998 C 644.794006 486.106079 644.794006 496.811951 644.794006 507.31604 C 644.794006 518.22406 644.794006 529.131958 644.794006 540.040039 C 644.794006 550.948059 644.794006 561.855957 644.794006 572.764038 C 644.794006 575.187988 645.383972 577.98999 647 579 C 648.615967 580.01001 651.923889 580.251221 654 579 C 657.842957 576.683899 654.056641 556.668091 655 551 C 655.970276 545.170044 670.926392 538.149475 678 551 C 681.30603 557.006042 679.943237 586.155151 677 594 C 672.747437 605.334717 662.795776 619.551025 647.520996 627.606995 C 635.927856 633.721313 623.988037 637 611.463989 637 C 591.667908 637 573.387085 629.728027 556.620972 615.18396 C 539.854919 600.639893 531.471985 580.844116 531.471985 555.796021 C 531.471985 529.535889 531.471985 501.155151 531.471985 470.653015 C 531.471985 440.150879 531.471985 409.144165 531.471985 377.632019 C 531.471985 346.523865 531.471985 315.820129 531.471985 285.52002 C 531.471985 255.219849 531.471985 250.142151 531.471985 224.286011 L 552.069824 224.286011 L 552 534 L 562 534 L 561.942383 224.286011 L 644.794006 224.286011 C 644.794006 236.406067 644.794006 227.646912 644.794006 244.008972 C 644.794006 260.371094 644.794006 277.237915 644.794006 294.609985 C 644.794006 311.982117 644.794006 328.94989 644.794006 345.513977 C 644.794006 362.078064 644.794006 376.419922 644.794006 388.539978 C 656.914063 379.247925 686.751953 350.517578 755.356995 361.27002 C 765.337158 362.834229 774.647949 366.521973 783.536011 370.966003 C 797.676025 377.834045 808.381958 387.327942 815.653992 399.447998 C 822.926025 411.568054 826.562012 425.303955 826.562012 440.656006 C 826.966003 452.776062 827.067017 464.895935 826.86499 477.015991 C 826.662964 489.136047 826.562012 501.255981 826.562012 513.375977 C 826.562012 519.436035 826.562012 525.596924 826.562012 531.859009 C 826.562012 538.121033 826.562012 567.281982 826.562012 573.342041 C 826.562012 575.765991 827.369995 577.381958 828.985962 578.190002 C 830.602051 578.998047 832.278076 579.83844 833.833984 579.401978 C 840.501099 577.53186 836.376343 555.288757 838 550 C 840.33374 542.398254 856.697754 537.952881 861 555 Z"/>
    <path id="w" fill="#000000" fill-rule="evenodd" stroke="none" d="M 505.674011 505.497986 C 505.674011 548.322205 489.716187 581.44989 457.799988 604.881958 C 425.88385 628.314087 389.928253 640.030029 349.932068 640.030029 C 346.700043 640.030029 343.468079 639.929016 340.236053 639.72699 C 337.004059 639.525024 333.772064 639.222046 330.54007 638.817993 C 318.824005 637.605957 307.209106 635.28302 295.695007 631.848999 C 284.180939 628.414978 273.57605 623.466064 263.880005 617.002014 C 250.951935 624.67804 236.408081 630.536011 220.247986 634.575989 C 204.087921 638.616028 187.726074 640.635986 171.161987 640.635986 C 156.213928 640.635986 141.670074 638.817993 127.529999 635.182007 C 113.389923 631.546021 100.462067 625.890015 88.746002 618.213989 C 76.221939 609.72998 66.021042 599.125061 58.14299 586.398987 C 50.264954 573.672974 46.326004 558.018066 46.326004 539.43396 C 46.326004 523.677917 46.326004 508.427063 46.326004 493.68103 C 46.326004 478.934937 46.326004 464.290039 46.326004 449.745972 C 46.326004 435.201904 46.326004 420.557068 46.326004 405.811035 C 46.326004 391.064941 46.326004 375.814087 46.326004 360.057983 L 67.932617 360.057983 L 68 534 L 78 534 L 78.050781 360.057983 L 150.557999 360.057983 L 150.557999 533.97998 C 153.790009 535.192017 157.223984 536.100952 160.859985 536.707031 C 164.496002 537.312988 168.333984 537.615967 172.373993 537.615967 C 173.98999 537.615967 175.605988 537.615967 177.221985 537.615967 C 178.838013 537.615967 180.411011 537.160034 182.070007 537.01001 C 199.706848 535.415161 211.356659 520.203857 211.884003 505.497986 C 211.884003 505.497986 211.884003 497.923096 211.884003 482.77301 C 211.884003 467.622925 211.884003 450.756104 211.884003 432.171997 C 211.884003 415.60791 211.884003 400.054077 211.884003 385.51001 C 211.884003 370.965942 211.884003 362.481995 211.884003 360.057983 L 316.116058 360.057983 L 316.116058 533.97998 C 319.348083 535.192017 345.218201 538.872986 360.840057 537.01001 C 370.94101 535.80542 380.232025 532.666992 388.716064 527.617004 C 397.200104 522.567017 401.000092 508.696106 401.000092 499 C 401.000092 484.051941 396.089111 477.925049 385.383057 467.622986 C 374.677002 457.320923 349.124054 443.079956 348.720062 443.079956 L 389.92807 347.33197 C 422.248169 361.068054 449.618896 381.570862 472.041016 408.841003 C 494.463135 436.111145 505.674011 468.329834 505.674011 505.497986 Z"/>
    <path id="Rectangle" fill="#000000" fill-rule="evenodd" stroke="none" d="M 46 683 L 46 764.05957 L 1860 764 L 1860 774 L 46 774.070801 L 46 796 L 2125 796 L 2125 683 Z"/>
    <g id="Group-copy-3">
        <path id="e-copy-4" fill="#000000" fill-rule="evenodd" stroke="none" d="M 1310.56665 436.246582 C 1324.78894 445.022522 1336.918335 449.744141 1350.96167 450.953369 C 1365.005005 452.162598 1378.339478 450.61731 1390.965576 446.317505 C 1391.72229 446.033936 1392.384155 445.78595 1392.951782 445.573181 C 1393.519165 445.360596 1394.181274 445.112488 1394.937744 444.829041 C 1396.45105 444.261963 1397.964478 443.694885 1399.477661 443.127808 C 1400.990845 442.560791 1402.433228 441.804626 1403.804688 440.859253 C 1408.202759 438.779785 1412.364258 436.357544 1416.289551 433.592346 C 1420.214844 430.827148 1424.036255 427.846741 1427.356445 424.268127 C 1467.272095 381.246582 1435.874634 338.335327 1433.370117 325.087646 C 1432.620361 321.122559 1434.100464 316.856262 1437.117798 315.140076 C 1449.715698 307.974731 1453.644043 317.960815 1455.023926 320.177185 C 1467.865845 340.806763 1475.782349 395.343933 1455.580078 438.50592 L 1455.580078 438.50592 C 1436.404663 479.473938 1405.472778 502.185791 1381.657593 513.873047 C 1377.471069 515.927673 1373.074463 517.736511 1368.53479 519.437622 C 1331.838379 533.188538 1295.074585 533.806091 1258.24292 521.290161 C 1221.411133 508.774292 1194.489868 479.817932 1177.478516 434.420288 C 1161.317627 391.292603 1163.395874 352.224548 1183.713257 317.215088 C 1204.03064 282.205627 1231.969849 258.038452 1267.53125 244.712891 C 1290.608276 236.06543 1314.984131 233.186951 1340.659058 236.077698 C 1366.333984 238.968384 1390.493652 249.32959 1413.138672 267.161499 C 1414.178833 267.634583 1416.754883 271.630737 1417.180176 272.765686 C 1418.172485 275.413818 1418.585571 277.955566 1418.419434 280.390686 C 1418.253296 282.825806 1417.508057 285.154358 1416.183594 287.376404 L 1326.957031 417.289978 C 1326.957031 417.289978 1318.127197 427.372742 1307.996216 417.987549 C 1297.629395 408.383972 1304.13855 399.143005 1304.13855 399.143005 L 1349.004639 332.611328 C 1342.90564 330.151001 1336.557983 328.754578 1329.961792 328.422058 C 1323.365845 328.089294 1316.899536 328.678772 1310.562866 330.19043 C 1309.806152 330.473938 1308.955078 330.792908 1308.009277 331.147339 C 1307.063477 331.501709 1306.21228 331.820679 1305.455566 332.104187 C 1304.320801 332.52948 1303.280273 332.919312 1302.334473 333.273743 C 1301.388916 333.628052 1300.419434 334.207092 1299.42627 335.01062 C 1298.29126 335.435974 1297.286499 335.920349 1296.411499 336.463867 C 1295.536621 337.007446 1294.602539 337.68103 1293.609497 338.48468 C 1284.150513 345.48053 1278.817139 354.274048 1277.609009 364.86554 C 1276.400513 375.457092 1277.520874 385.930786 1280.970093 396.287109 C 1281.111816 396.665344 1281.253662 397.043701 1281.395386 397.421936 C 1281.537109 397.800293 1281.678955 398.178589 1281.820679 398.556885 C 1283.096558 401.96167 1284.526245 405.20105 1286.109375 408.274963 C 1287.692627 411.348877 1289.597412 414.745483 1291.844604 417.632446 C 1298.589355 426.297241 1307.510742 434.360901 1310.56665 436.246582 Z"/>
        <path id="e-copy-5" fill="#000000" fill-rule="evenodd" stroke="none" d="M 1006.56665 547.246582 C 1020.78894 556.022522 1032.918335 560.744141 1046.96167 561.953369 C 1061.005005 563.162598 1074.339478 561.61731 1086.965576 557.317505 C 1087.72229 557.033936 1088.384155 556.78595 1088.951782 556.573181 C 1089.519165 556.360596 1090.181274 556.112488 1090.937744 555.829041 C 1092.45105 555.261963 1093.964478 554.694885 1095.477661 554.127808 C 1096.990845 553.560791 1098.433228 552.804626 1099.804688 551.859253 C 1104.202759 549.779785 1108.364258 547.357544 1112.289551 544.592346 C 1116.214844 541.827148 1120.036255 538.846741 1123.356445 535.268127 C 1163.272095 492.246582 1131.874634 449.335327 1129.370117 436.087646 C 1128.620361 432.122559 1130.100464 427.856262 1133.117798 426.140076 C 1145.715698 418.974731 1149.644043 428.960815 1151.023926 431.177185 C 1163.865845 451.806763 1171.782349 506.343933 1151.580078 549.50592 L 1151.580078 549.50592 C 1132.404663 590.473938 1101.472778 613.185791 1077.657593 624.873047 C 1073.471069 626.927673 1069.074463 628.736511 1064.53479 630.437622 C 1027.838379 644.188538 991.074585 644.806091 954.24292 632.290161 C 917.411133 619.774292 890.489868 590.817932 873.478516 545.420288 C 857.317627 502.292603 859.395874 463.224548 879.713257 428.215088 C 900.03064 393.205627 927.969849 369.038452 963.53125 355.712891 C 986.608276 347.06543 1010.984131 344.186951 1036.659058 347.077698 C 1062.333984 349.968384 1086.493652 360.32959 1109.138672 378.161499 C 1110.178833 378.634583 1112.754883 382.630737 1113.180176 383.765686 C 1114.172485 386.413818 1114.585571 388.955566 1114.419434 391.390686 C 1114.253296 393.825806 1113.508057 396.154358 1112.183594 398.376404 L 1022.957031 528.289978 C 1022.957031 528.289978 1014.127197 538.372742 1003.996216 528.987549 C 993.629395 519.383972 1000.13855 510.143005 1000.13855 510.143005 L 1045.004639 443.611328 C 1038.90564 441.151001 1032.557983 439.754578 1025.961792 439.422058 C 1019.365845 439.089294 1012.899536 439.678772 1006.562866 441.19043 C 1005.806152 441.473938 1004.955078 441.792908 1004.009277 442.147339 C 1003.063477 442.501709 1002.21228 442.820679 1001.455566 443.104187 C 1000.320801 443.52948 999.280273 443.919312 998.334473 444.273743 C 997.388916 444.628052 996.419434 445.207092 995.42627 446.01062 C 994.29126 446.435974 993.286499 446.920349 992.411499 447.463867 C 991.536621 448.007446 990.602539 448.68103 989.609497 449.48468 C 980.150513 456.48053 974.817139 465.274048 973.609009 475.86554 C 972.400513 486.457092 973.520874 496.930786 976.970093 507.287109 C 977.111816 507.665344 977.253662 508.043701 977.395386 508.421936 C 977.537109 508.800293 977.678955 509.178589 977.820679 509.556885 C 979.096558 512.96167 980.526245 516.20105 982.109375 519.274963 C 983.692627 522.348877 985.597412 525.745483 987.844604 528.632446 C 994.589355 537.297241 1003.510742 545.360901 1006.56665 547.246582 Z"/>
        <g id="Group-copy">
            <path id="Path" fill="#000000" fill-rule="evenodd" stroke="none" d="M 899.976685 279.200317 C 904.043091 290.356384 916.383423 296.103699 927.539551 292.037231 L 1000.822998 265.325073 C 1011.979004 261.258606 1017.726318 248.918274 1013.659912 237.762146 C 1009.593384 226.606079 997.253052 220.858765 986.097046 224.925232 L 912.813599 251.63739 C 901.657471 255.703857 895.910156 268.044189 899.976685 279.200317 Z"/>
            <path id="Rounded-Rectangle-copy-3" fill="#000000" fill-rule="evenodd" stroke="none" d="M 1149.910767 42.257324 C 1156.643066 32.476196 1170.029907 30.004517 1179.811035 36.736694 L 1244.062622 80.960266 C 1234.815308 94.007751 1228.171509 103.249512 1219.088257 115.577026 L 1155.431396 72.157471 C 1145.650269 65.425293 1143.178589 52.038452 1149.910767 42.257324 Z"/>
            <path id="Rounded-Rectangle-copy-2" fill="#000000" fill-rule="evenodd" stroke="none" d="M 1005.916992 334.780457 C 994.760864 338.846924 982.420532 333.099609 978.354004 321.943481 C 974.287598 310.787354 980.034912 298.447083 991.19104 294.380615 L 1168.276489 229.83197 L 1263.749634 94.477173 C 1270.59375 84.773987 1284.008057 82.456299 1293.711304 89.300537 C 1303.414429 96.144653 1305.732056 109.559021 1298.887817 119.262207 L 1208.907227 246.830078 C 1200.700439 258.77356 1195.663696 265.61676 1195.663696 265.61676 L 1005.916992 334.780457 Z"/>
        </g>
    </g>
</svg>
